<mxfile host="app.diagrams.net" agent="Mozilla/5.0 (Windows NT 10.0; Win64; x64) AppleWebKit/537.36 (KHTML, like Gecko) Chrome/131.0.0.0 Safari/537.36" version="25.0.1">
  <diagram name="Page-1" id="03018318-947c-dd8e-b7a3-06fadd420f32">
    <mxGraphModel dx="1173" dy="579" grid="1" gridSize="10" guides="1" tooltips="1" connect="1" arrows="1" fold="1" page="1" pageScale="1" pageWidth="1100" pageHeight="850" background="none" math="0" shadow="0">
      <root>
        <mxCell id="0" />
        <mxCell id="1" parent="0" />
        <mxCell id="677b7b8949515195-1" value="" style="whiteSpace=wrap;html=1;rounded=0;shadow=0;labelBackgroundColor=none;strokeColor=#000000;strokeWidth=1;fillColor=none;fontFamily=Verdana;fontSize=12;fontColor=#000000;align=center;comic=1;" parent="1" vertex="1">
          <mxGeometry x="20" y="20" width="1060" height="1190" as="geometry" />
        </mxCell>
        <mxCell id="677b7b8949515195-2" value="LOGO" style="whiteSpace=wrap;html=1;rounded=0;shadow=0;labelBackgroundColor=none;strokeWidth=1;fontFamily=Verdana;fontSize=28;align=center;comic=1;" parent="1" vertex="1">
          <mxGeometry x="40" y="60" width="190" height="50" as="geometry" />
        </mxCell>
        <mxCell id="677b7b8949515195-8" value="" style="whiteSpace=wrap;html=1;rounded=0;shadow=0;labelBackgroundColor=none;strokeWidth=1;fillColor=none;fontFamily=Verdana;fontSize=12;align=center;comic=1;" parent="1" vertex="1">
          <mxGeometry x="30" y="373" width="200" height="270" as="geometry" />
        </mxCell>
        <mxCell id="677b7b8949515195-9" value="" style="line;strokeWidth=1;html=1;rounded=0;shadow=0;labelBackgroundColor=none;fillColor=none;fontFamily=Verdana;fontSize=14;fontColor=#000000;align=center;comic=1;" parent="1" vertex="1">
          <mxGeometry x="20" y="140" width="1060" height="10" as="geometry" />
        </mxCell>
        <mxCell id="677b7b8949515195-10" value="" style="whiteSpace=wrap;html=1;rounded=0;shadow=0;labelBackgroundColor=none;strokeWidth=1;fillColor=none;fontFamily=Verdana;fontSize=12;align=center;comic=1;" parent="1" vertex="1">
          <mxGeometry x="350" y="60" width="720" height="50" as="geometry" />
        </mxCell>
        <mxCell id="677b7b8949515195-11" value="Home" style="text;html=1;points=[];align=left;verticalAlign=top;spacingTop=-4;fontSize=14;fontFamily=Verdana" parent="1" vertex="1">
          <mxGeometry x="369" y="75" width="60" height="20" as="geometry" />
        </mxCell>
        <mxCell id="677b7b8949515195-12" value="About" style="text;html=1;points=[];align=left;verticalAlign=top;spacingTop=-4;fontSize=14;fontFamily=Verdana" parent="1" vertex="1">
          <mxGeometry x="473" y="75" width="60" height="20" as="geometry" />
        </mxCell>
        <mxCell id="677b7b8949515195-14" value="Contact us&amp;nbsp;" style="text;html=1;points=[];align=left;verticalAlign=top;spacingTop=-4;fontSize=14;fontFamily=Verdana" parent="1" vertex="1">
          <mxGeometry x="769" y="75" width="60" height="20" as="geometry" />
        </mxCell>
        <mxCell id="677b7b8949515195-25" value="" style="whiteSpace=wrap;html=1;rounded=0;shadow=0;labelBackgroundColor=none;strokeWidth=1;fillColor=none;fontFamily=Verdana;fontSize=12;align=center;comic=1;" parent="1" vertex="1">
          <mxGeometry x="845" y="320" width="230" height="400" as="geometry" />
        </mxCell>
        <mxCell id="677b7b8949515195-27" value="Search by city&lt;div&gt;&lt;br&gt;&lt;/div&gt;" style="text;html=1;points=[];align=left;verticalAlign=top;spacingTop=-4;fontSize=14;fontFamily=Verdana" parent="1" vertex="1">
          <mxGeometry x="40" y="398" width="170" height="20" as="geometry" />
        </mxCell>
        <mxCell id="677b7b8949515195-28" value="Search by area" style="text;html=1;points=[];align=left;verticalAlign=top;spacingTop=-4;fontSize=14;fontFamily=Verdana" parent="1" vertex="1">
          <mxGeometry x="40" y="434" width="170" height="20" as="geometry" />
        </mxCell>
        <mxCell id="677b7b8949515195-29" value="&lt;div&gt;Search by distance&amp;nbsp;&lt;/div&gt;" style="text;html=1;points=[];align=left;verticalAlign=top;spacingTop=-4;fontSize=14;fontFamily=Verdana" parent="1" vertex="1">
          <mxGeometry x="40" y="469" width="170" height="20" as="geometry" />
        </mxCell>
        <mxCell id="677b7b8949515195-30" value="Searh by Price" style="text;html=1;points=[];align=left;verticalAlign=top;spacingTop=-4;fontSize=14;fontFamily=Verdana" parent="1" vertex="1">
          <mxGeometry x="40" y="505" width="170" height="20" as="geometry" />
        </mxCell>
        <mxCell id="677b7b8949515195-39" value="Search by Rating&amp;nbsp;" style="text;html=1;points=[];align=left;verticalAlign=top;spacingTop=-4;fontSize=14;fontFamily=Verdana" parent="1" vertex="1">
          <mxGeometry x="40" y="541" width="170" height="20" as="geometry" />
        </mxCell>
        <mxCell id="7AhK19ZsYWksxPjOCYiF-1" value="" style="html=1;shadow=0;dashed=0;shape=mxgraph.bootstrap.rrect;rSize=5;fillColor=#ffffff;strokeColor=#999999;" vertex="1" parent="1">
          <mxGeometry x="860" y="330" width="220" height="345" as="geometry" />
        </mxCell>
        <mxCell id="7AhK19ZsYWksxPjOCYiF-2" value="Email address" style="fillColor=none;strokeColor=none;align=left;spacing=20;fontSize=14;" vertex="1" parent="7AhK19ZsYWksxPjOCYiF-1">
          <mxGeometry width="220" height="40" relative="1" as="geometry">
            <mxPoint y="10" as="offset" />
          </mxGeometry>
        </mxCell>
        <mxCell id="7AhK19ZsYWksxPjOCYiF-3" value="email@example.com" style="html=1;shadow=0;dashed=0;shape=mxgraph.bootstrap.rrect;rSize=5;fillColor=none;strokeColor=#999999;align=left;spacing=15;fontSize=14;fontColor=#6C767D;" vertex="1" parent="7AhK19ZsYWksxPjOCYiF-1">
          <mxGeometry width="180" height="30" relative="1" as="geometry">
            <mxPoint x="20" y="50" as="offset" />
          </mxGeometry>
        </mxCell>
        <mxCell id="7AhK19ZsYWksxPjOCYiF-4" value="Password" style="fillColor=none;strokeColor=none;align=left;spacing=20;fontSize=14;" vertex="1" parent="7AhK19ZsYWksxPjOCYiF-1">
          <mxGeometry width="220" height="40" relative="1" as="geometry">
            <mxPoint y="90" as="offset" />
          </mxGeometry>
        </mxCell>
        <mxCell id="7AhK19ZsYWksxPjOCYiF-5" value="Password" style="html=1;shadow=0;dashed=0;shape=mxgraph.bootstrap.rrect;rSize=5;fillColor=none;strokeColor=#999999;align=left;spacing=15;fontSize=14;fontColor=#6C767D;" vertex="1" parent="7AhK19ZsYWksxPjOCYiF-1">
          <mxGeometry width="180" height="30" relative="1" as="geometry">
            <mxPoint x="20" y="130" as="offset" />
          </mxGeometry>
        </mxCell>
        <mxCell id="7AhK19ZsYWksxPjOCYiF-6" value="Remember me" style="html=1;shadow=0;dashed=0;shape=mxgraph.bootstrap.rrect;rSize=2;fillColor=#EDEDED;strokeColor=#999999;align=left;fontSize=14;fontColor=#000000;labelPosition=right;verticalLabelPosition=middle;verticalAlign=middle;spacingLeft=5;spacingTop=-2;gradientColor=#DEDEDE;" vertex="1" parent="7AhK19ZsYWksxPjOCYiF-1">
          <mxGeometry width="10" height="10" relative="1" as="geometry">
            <mxPoint x="20" y="180" as="offset" />
          </mxGeometry>
        </mxCell>
        <mxCell id="7AhK19ZsYWksxPjOCYiF-7" value="Sign in" style="html=1;shadow=0;dashed=0;shape=mxgraph.bootstrap.rrect;rSize=5;fillColor=#000000;strokeColor=none;align=center;fontSize=14;fontColor=#FFFFFF;" vertex="1" parent="7AhK19ZsYWksxPjOCYiF-1">
          <mxGeometry width="70" height="40" relative="1" as="geometry">
            <mxPoint x="20" y="210" as="offset" />
          </mxGeometry>
        </mxCell>
        <mxCell id="7AhK19ZsYWksxPjOCYiF-8" value="" style="shape=line;strokeColor=#999999;perimeter=none;resizeWidth=1;" vertex="1" parent="7AhK19ZsYWksxPjOCYiF-1">
          <mxGeometry width="220" height="10" relative="1" as="geometry">
            <mxPoint y="260" as="offset" />
          </mxGeometry>
        </mxCell>
        <mxCell id="7AhK19ZsYWksxPjOCYiF-9" value="New around here? Sign up&lt;br&gt;&lt;br&gt;Forgot password?" style="html=1;fillColor=none;strokeColor=none;align=left;spacing=20;fontSize=14;" vertex="1" parent="7AhK19ZsYWksxPjOCYiF-1">
          <mxGeometry width="220" height="60" relative="1" as="geometry">
            <mxPoint y="275" as="offset" />
          </mxGeometry>
        </mxCell>
        <mxCell id="7AhK19ZsYWksxPjOCYiF-10" value="Restaurants" style="text;html=1;points=[];align=left;verticalAlign=top;spacingTop=-4;fontSize=14;fontFamily=Verdana" vertex="1" parent="1">
          <mxGeometry x="562" y="75" width="60" height="20" as="geometry" />
        </mxCell>
        <mxCell id="7AhK19ZsYWksxPjOCYiF-12" value="Login / Sign Up" style="text;html=1;points=[];align=center;verticalAlign=top;spacingTop=-4;fontSize=14;fontFamily=Verdana;imageHeight=24;rounded=1;fillColor=#000000;fontColor=#ffffff;strokeColor=#000000;" vertex="1" parent="1">
          <mxGeometry x="876" y="77" width="134" height="20" as="geometry" />
        </mxCell>
        <mxCell id="7AhK19ZsYWksxPjOCYiF-13" value="Menu List" style="text;html=1;points=[];align=left;verticalAlign=top;spacingTop=-4;fontSize=14;fontFamily=Verdana" vertex="1" parent="1">
          <mxGeometry x="674" y="77" width="60" height="20" as="geometry" />
        </mxCell>
        <mxCell id="7AhK19ZsYWksxPjOCYiF-17" value="restaurant&amp;nbsp; 1" style="html=1;shadow=0;dashed=0;shape=mxgraph.bootstrap.rrect;rSize=5;strokeColor=#DFDFDF;html=1;whiteSpace=wrap;fillColor=#ffffff;fontColor=#000000;verticalAlign=bottom;align=left;spacing=20;fontSize=14;" vertex="1" parent="1">
          <mxGeometry x="260" y="372" width="120" height="136" as="geometry" />
        </mxCell>
        <mxCell id="7AhK19ZsYWksxPjOCYiF-18" value="Image cap" style="html=1;shadow=0;dashed=0;shape=mxgraph.bootstrap.topButton;rSize=5;perimeter=none;whiteSpace=wrap;fillColor=#868E96;strokeColor=#DFDFDF;fontColor=#DEE2E6;resizeWidth=1;fontSize=18;" vertex="1" parent="7AhK19ZsYWksxPjOCYiF-17">
          <mxGeometry width="120" height="90" relative="1" as="geometry" />
        </mxCell>
        <mxCell id="7AhK19ZsYWksxPjOCYiF-20" value="restaurant&amp;nbsp; 2" style="html=1;shadow=0;dashed=0;shape=mxgraph.bootstrap.rrect;rSize=5;strokeColor=#DFDFDF;html=1;whiteSpace=wrap;fillColor=#ffffff;fontColor=#000000;verticalAlign=bottom;align=left;spacing=20;fontSize=14;" vertex="1" parent="1">
          <mxGeometry x="410" y="372" width="120" height="136" as="geometry" />
        </mxCell>
        <mxCell id="7AhK19ZsYWksxPjOCYiF-21" value="Image cap" style="html=1;shadow=0;dashed=0;shape=mxgraph.bootstrap.topButton;rSize=5;perimeter=none;whiteSpace=wrap;fillColor=#868E96;strokeColor=#DFDFDF;fontColor=#DEE2E6;resizeWidth=1;fontSize=18;" vertex="1" parent="7AhK19ZsYWksxPjOCYiF-20">
          <mxGeometry width="120" height="90" relative="1" as="geometry" />
        </mxCell>
        <mxCell id="7AhK19ZsYWksxPjOCYiF-22" value="restaurant&amp;nbsp; 3" style="html=1;shadow=0;dashed=0;shape=mxgraph.bootstrap.rrect;rSize=5;strokeColor=#DFDFDF;html=1;whiteSpace=wrap;fillColor=#ffffff;fontColor=#000000;verticalAlign=bottom;align=left;spacing=20;fontSize=14;" vertex="1" parent="1">
          <mxGeometry x="560" y="372" width="120" height="136" as="geometry" />
        </mxCell>
        <mxCell id="7AhK19ZsYWksxPjOCYiF-23" value="Image cap" style="html=1;shadow=0;dashed=0;shape=mxgraph.bootstrap.topButton;rSize=5;perimeter=none;whiteSpace=wrap;fillColor=#868E96;strokeColor=#DFDFDF;fontColor=#DEE2E6;resizeWidth=1;fontSize=18;" vertex="1" parent="7AhK19ZsYWksxPjOCYiF-22">
          <mxGeometry width="120" height="90" relative="1" as="geometry" />
        </mxCell>
        <mxCell id="7AhK19ZsYWksxPjOCYiF-24" value="restaurant&amp;nbsp; 4" style="html=1;shadow=0;dashed=0;shape=mxgraph.bootstrap.rrect;rSize=5;strokeColor=#DFDFDF;html=1;whiteSpace=wrap;fillColor=#ffffff;fontColor=#000000;verticalAlign=bottom;align=left;spacing=20;fontSize=14;" vertex="1" parent="1">
          <mxGeometry x="700" y="369" width="120" height="136" as="geometry" />
        </mxCell>
        <mxCell id="7AhK19ZsYWksxPjOCYiF-25" value="Image cap" style="html=1;shadow=0;dashed=0;shape=mxgraph.bootstrap.topButton;rSize=5;perimeter=none;whiteSpace=wrap;fillColor=#868E96;strokeColor=#DFDFDF;fontColor=#DEE2E6;resizeWidth=1;fontSize=18;" vertex="1" parent="7AhK19ZsYWksxPjOCYiF-24">
          <mxGeometry width="120" height="90" relative="1" as="geometry" />
        </mxCell>
        <mxCell id="7AhK19ZsYWksxPjOCYiF-26" value="restaurant&amp;nbsp; 5" style="html=1;shadow=0;dashed=0;shape=mxgraph.bootstrap.rrect;rSize=5;strokeColor=#DFDFDF;html=1;whiteSpace=wrap;fillColor=#ffffff;fontColor=#000000;verticalAlign=bottom;align=left;spacing=20;fontSize=14;" vertex="1" parent="1">
          <mxGeometry x="260" y="522" width="120" height="136" as="geometry" />
        </mxCell>
        <mxCell id="7AhK19ZsYWksxPjOCYiF-27" value="Image cap" style="html=1;shadow=0;dashed=0;shape=mxgraph.bootstrap.topButton;rSize=5;perimeter=none;whiteSpace=wrap;fillColor=#868E96;strokeColor=#DFDFDF;fontColor=#DEE2E6;resizeWidth=1;fontSize=18;" vertex="1" parent="7AhK19ZsYWksxPjOCYiF-26">
          <mxGeometry width="120" height="90" relative="1" as="geometry" />
        </mxCell>
        <mxCell id="7AhK19ZsYWksxPjOCYiF-28" value="restaurant&amp;nbsp; 6" style="html=1;shadow=0;dashed=0;shape=mxgraph.bootstrap.rrect;rSize=5;strokeColor=#DFDFDF;html=1;whiteSpace=wrap;fillColor=#ffffff;fontColor=#000000;verticalAlign=bottom;align=left;spacing=20;fontSize=14;" vertex="1" parent="1">
          <mxGeometry x="410" y="522" width="120" height="136" as="geometry" />
        </mxCell>
        <mxCell id="7AhK19ZsYWksxPjOCYiF-29" value="Image cap" style="html=1;shadow=0;dashed=0;shape=mxgraph.bootstrap.topButton;rSize=5;perimeter=none;whiteSpace=wrap;fillColor=#868E96;strokeColor=#DFDFDF;fontColor=#DEE2E6;resizeWidth=1;fontSize=18;" vertex="1" parent="7AhK19ZsYWksxPjOCYiF-28">
          <mxGeometry width="120" height="90" relative="1" as="geometry" />
        </mxCell>
        <mxCell id="7AhK19ZsYWksxPjOCYiF-30" value="restaurant&amp;nbsp; 7" style="html=1;shadow=0;dashed=0;shape=mxgraph.bootstrap.rrect;rSize=5;strokeColor=#DFDFDF;html=1;whiteSpace=wrap;fillColor=#ffffff;fontColor=#000000;verticalAlign=bottom;align=left;spacing=20;fontSize=14;" vertex="1" parent="1">
          <mxGeometry x="560" y="522" width="120" height="136" as="geometry" />
        </mxCell>
        <mxCell id="7AhK19ZsYWksxPjOCYiF-31" value="Image cap" style="html=1;shadow=0;dashed=0;shape=mxgraph.bootstrap.topButton;rSize=5;perimeter=none;whiteSpace=wrap;fillColor=#868E96;strokeColor=#DFDFDF;fontColor=#DEE2E6;resizeWidth=1;fontSize=18;" vertex="1" parent="7AhK19ZsYWksxPjOCYiF-30">
          <mxGeometry width="120" height="90" relative="1" as="geometry" />
        </mxCell>
        <mxCell id="7AhK19ZsYWksxPjOCYiF-32" value="restaurant&amp;nbsp; 8" style="html=1;shadow=0;dashed=0;shape=mxgraph.bootstrap.rrect;rSize=5;strokeColor=#DFDFDF;html=1;whiteSpace=wrap;fillColor=#ffffff;fontColor=#000000;verticalAlign=bottom;align=left;spacing=20;fontSize=14;" vertex="1" parent="1">
          <mxGeometry x="700" y="519" width="120" height="136" as="geometry" />
        </mxCell>
        <mxCell id="7AhK19ZsYWksxPjOCYiF-33" value="Image cap" style="html=1;shadow=0;dashed=0;shape=mxgraph.bootstrap.topButton;rSize=5;perimeter=none;whiteSpace=wrap;fillColor=#868E96;strokeColor=#DFDFDF;fontColor=#DEE2E6;resizeWidth=1;fontSize=18;" vertex="1" parent="7AhK19ZsYWksxPjOCYiF-32">
          <mxGeometry width="120" height="90" relative="1" as="geometry" />
        </mxCell>
        <mxCell id="7AhK19ZsYWksxPjOCYiF-34" value="Neare me" style="text;html=1;points=[];align=left;verticalAlign=top;spacingTop=-4;fontSize=14;fontFamily=Verdana" vertex="1" parent="1">
          <mxGeometry x="40" y="575" width="170" height="20" as="geometry" />
        </mxCell>
        <mxCell id="7AhK19ZsYWksxPjOCYiF-35" value="Search&amp;nbsp;restaurant here...." style="html=1;shadow=0;dashed=0;shape=mxgraph.bootstrap.rrect;rSize=5;strokeColor=#CED4DA;strokeWidth=1;fillColor=#E9ECEF;fontColor=#505050;whiteSpace=wrap;align=left;verticalAlign=middle;spacingLeft=10;fontSize=14;" vertex="1" parent="1">
          <mxGeometry x="40" y="310" width="780" height="40" as="geometry" />
        </mxCell>
        <mxCell id="7AhK19ZsYWksxPjOCYiF-39" value="&lt;font style=&quot;font-size: 32px;&quot;&gt;Hero Banner / Slide images&amp;nbsp;&lt;/font&gt;" style="rounded=0;whiteSpace=wrap;html=1;" vertex="1" parent="1">
          <mxGeometry x="20" y="150" width="1060" height="150" as="geometry" />
        </mxCell>
        <mxCell id="7AhK19ZsYWksxPjOCYiF-40" value="" style="swimlane;shape=mxgraph.bootstrap.anchor;strokeColor=none;fillColor=#6C767D;fontColor=#ffffff;fontStyle=0;childLayout=stackLayout;horizontal=0;startSize=0;horizontalStack=1;resizeParent=1;resizeParentMax=0;resizeLast=0;collapsible=0;marginBottom=0;whiteSpace=wrap;html=1;" vertex="1" parent="1">
          <mxGeometry x="398" y="678" width="260" height="30" as="geometry" />
        </mxCell>
        <mxCell id="7AhK19ZsYWksxPjOCYiF-41" value="1" style="text;strokeColor=inherit;align=center;verticalAlign=middle;spacingLeft=10;spacingRight=10;overflow=hidden;points=[[0,0.5],[1,0.5]];portConstraint=eastwest;rotatable=0;whiteSpace=wrap;html=1;shape=mxgraph.bootstrap.leftButton;rSize=5;fillColor=inherit;fontColor=inherit;" vertex="1" parent="7AhK19ZsYWksxPjOCYiF-40">
          <mxGeometry width="30" height="30" as="geometry" />
        </mxCell>
        <mxCell id="7AhK19ZsYWksxPjOCYiF-42" value="2" style="text;strokeColor=inherit;align=center;verticalAlign=middle;spacingLeft=10;spacingRight=10;overflow=hidden;points=[[0,0.5],[1,0.5]];portConstraint=eastwest;rotatable=0;whiteSpace=wrap;html=1;rSize=5;fillColor=inherit;fontColor=inherit;" vertex="1" parent="7AhK19ZsYWksxPjOCYiF-40">
          <mxGeometry x="30" width="30" height="30" as="geometry" />
        </mxCell>
        <mxCell id="7AhK19ZsYWksxPjOCYiF-43" value="3" style="text;strokeColor=inherit;align=center;verticalAlign=middle;spacingLeft=10;spacingRight=10;overflow=hidden;points=[[0,0.5],[1,0.5]];portConstraint=eastwest;rotatable=0;whiteSpace=wrap;html=1;rSize=5;fillColor=inherit;fontColor=inherit;" vertex="1" parent="7AhK19ZsYWksxPjOCYiF-40">
          <mxGeometry x="60" width="30" height="30" as="geometry" />
        </mxCell>
        <mxCell id="7AhK19ZsYWksxPjOCYiF-44" value="4" style="text;strokeColor=inherit;align=center;verticalAlign=middle;spacingLeft=10;spacingRight=10;overflow=hidden;points=[[0,0.5],[1,0.5]];portConstraint=eastwest;rotatable=0;whiteSpace=wrap;html=1;shape=mxgraph.bootstrap.rightButton;rSize=5;fillColor=inherit;fontColor=inherit;" vertex="1" parent="7AhK19ZsYWksxPjOCYiF-40">
          <mxGeometry x="90" width="30" height="30" as="geometry" />
        </mxCell>
        <mxCell id="7AhK19ZsYWksxPjOCYiF-45" value="" style="text;" vertex="1" parent="7AhK19ZsYWksxPjOCYiF-40">
          <mxGeometry x="120" width="10" height="30" as="geometry" />
        </mxCell>
        <mxCell id="7AhK19ZsYWksxPjOCYiF-46" value="5" style="text;strokeColor=inherit;align=center;verticalAlign=middle;spacingLeft=10;spacingRight=10;overflow=hidden;points=[[0,0.5],[1,0.5]];portConstraint=eastwest;rotatable=0;whiteSpace=wrap;html=1;shape=mxgraph.bootstrap.leftButton;rSize=5;fillColor=inherit;fontColor=inherit;" vertex="1" parent="7AhK19ZsYWksxPjOCYiF-40">
          <mxGeometry x="130" width="30" height="30" as="geometry" />
        </mxCell>
        <mxCell id="7AhK19ZsYWksxPjOCYiF-47" value="6" style="text;strokeColor=inherit;align=center;verticalAlign=middle;spacingLeft=10;spacingRight=10;overflow=hidden;points=[[0,0.5],[1,0.5]];portConstraint=eastwest;rotatable=0;whiteSpace=wrap;html=1;rSize=5;fillColor=inherit;fontColor=inherit;" vertex="1" parent="7AhK19ZsYWksxPjOCYiF-40">
          <mxGeometry x="160" width="30" height="30" as="geometry" />
        </mxCell>
        <mxCell id="7AhK19ZsYWksxPjOCYiF-48" value="7" style="text;strokeColor=inherit;align=center;verticalAlign=middle;spacingLeft=10;spacingRight=10;overflow=hidden;points=[[0,0.5],[1,0.5]];portConstraint=eastwest;rotatable=0;whiteSpace=wrap;html=1;shape=mxgraph.bootstrap.rightButton;rSize=5;fillColor=inherit;fontColor=inherit;" vertex="1" parent="7AhK19ZsYWksxPjOCYiF-40">
          <mxGeometry x="190" width="30" height="30" as="geometry" />
        </mxCell>
        <mxCell id="7AhK19ZsYWksxPjOCYiF-49" value="" style="text;" vertex="1" parent="7AhK19ZsYWksxPjOCYiF-40">
          <mxGeometry x="220" width="10" height="30" as="geometry" />
        </mxCell>
        <mxCell id="7AhK19ZsYWksxPjOCYiF-50" value="8" style="text;strokeColor=inherit;align=center;verticalAlign=middle;spacingLeft=10;spacingRight=10;overflow=hidden;points=[[0,0.5],[1,0.5]];portConstraint=eastwest;rotatable=0;whiteSpace=wrap;html=1;shape=mxgraph.bootstrap.rrect;rSize=5;fillColor=inherit;fontColor=inherit;" vertex="1" parent="7AhK19ZsYWksxPjOCYiF-40">
          <mxGeometry x="230" width="30" height="30" as="geometry" />
        </mxCell>
        <mxCell id="7AhK19ZsYWksxPjOCYiF-55" value="" style="rounded=0;whiteSpace=wrap;html=1;" vertex="1" parent="1">
          <mxGeometry x="20" y="760" width="1060" height="190" as="geometry" />
        </mxCell>
      </root>
    </mxGraphModel>
  </diagram>
</mxfile>
